<mxfile host="app.diagrams.net" agent="Mozilla/5.0 (Windows NT 10.0; Win64; x64) AppleWebKit/537.36 (KHTML, like Gecko) Chrome/133.0.0.0 Safari/537.36" version="26.1.0">
  <diagram name="Page-1" id="4sKc0clIRFlzBHYphu7W">
    <mxGraphModel dx="1259" dy="686" grid="1" gridSize="10" guides="1" tooltips="1" connect="1" arrows="1" fold="1" page="1" pageScale="1" pageWidth="1169" pageHeight="827" math="0" shadow="0">
      <root>
        <mxCell id="0" />
        <mxCell id="1" parent="0" />
        <mxCell id="nnbe5SiCw00a81uTdJZI-39" value="" style="whiteSpace=wrap;html=1;dashed=1;rounded=0;" parent="1" vertex="1">
          <mxGeometry x="20.5" y="380" width="119.5" height="440" as="geometry" />
        </mxCell>
        <mxCell id="nnbe5SiCw00a81uTdJZI-25" value="" style="whiteSpace=wrap;html=1;dashed=1;rounded=0;" parent="1" vertex="1">
          <mxGeometry x="150" y="32" width="545" height="788" as="geometry" />
        </mxCell>
        <mxCell id="q_ENeEPmGV3skopXBHg1-58" value="" style="whiteSpace=wrap;html=1;dashed=1;rounded=0;" parent="1" vertex="1">
          <mxGeometry x="738" y="211" width="630" height="609" as="geometry" />
        </mxCell>
        <mxCell id="q_ENeEPmGV3skopXBHg1-48" value="" style="whiteSpace=wrap;html=1;dashed=1;rounded=0;" parent="1" vertex="1">
          <mxGeometry x="449" y="59" width="171" height="110" as="geometry" />
        </mxCell>
        <mxCell id="wLlMsNXpMdABEa9xwLQL-44" value="" style="whiteSpace=wrap;html=1;dashed=1;rounded=0;" parent="1" vertex="1">
          <mxGeometry x="786" y="245" width="562" height="575" as="geometry" />
        </mxCell>
        <mxCell id="wLlMsNXpMdABEa9xwLQL-17" value="" style="whiteSpace=wrap;html=1;dashed=1;rounded=0;" parent="1" vertex="1">
          <mxGeometry x="807" y="489.5" width="143" height="136.5" as="geometry" />
        </mxCell>
        <mxCell id="wLlMsNXpMdABEa9xwLQL-22" value="" style="whiteSpace=wrap;html=1;dashed=1;rounded=0;" parent="1" vertex="1">
          <mxGeometry x="1023" y="676" width="280" height="117" as="geometry" />
        </mxCell>
        <mxCell id="wLlMsNXpMdABEa9xwLQL-8" value="" style="whiteSpace=wrap;html=1;dashed=1;rounded=0;" parent="1" vertex="1">
          <mxGeometry x="990" y="274" width="313" height="361" as="geometry" />
        </mxCell>
        <mxCell id="wLlMsNXpMdABEa9xwLQL-1" value="" style="whiteSpace=wrap;html=1;dashed=1;rounded=0;" parent="1" vertex="1">
          <mxGeometry x="448" y="232" width="172" height="224" as="geometry" />
        </mxCell>
        <mxCell id="wLlMsNXpMdABEa9xwLQL-2" value="" style="image;aspect=fixed;html=1;points=[];align=center;fontSize=12;image=img/lib/azure2/networking/Virtual_Networks_Classic.svg;" parent="1" vertex="1">
          <mxGeometry x="430" y="212" width="67" height="40" as="geometry" />
        </mxCell>
        <mxCell id="wLlMsNXpMdABEa9xwLQL-5" style="edgeStyle=orthogonalEdgeStyle;rounded=0;orthogonalLoop=1;jettySize=auto;html=1;" parent="1" target="wLlMsNXpMdABEa9xwLQL-4" edge="1">
          <mxGeometry relative="1" as="geometry">
            <mxPoint x="277" y="553" as="sourcePoint" />
          </mxGeometry>
        </mxCell>
        <mxCell id="nnbe5SiCw00a81uTdJZI-11" style="edgeStyle=orthogonalEdgeStyle;rounded=0;orthogonalLoop=1;jettySize=auto;html=1;" parent="1" source="wLlMsNXpMdABEa9xwLQL-4" target="wLlMsNXpMdABEa9xwLQL-19" edge="1">
          <mxGeometry relative="1" as="geometry" />
        </mxCell>
        <mxCell id="wLlMsNXpMdABEa9xwLQL-4" value="" style="image;aspect=fixed;html=1;points=[];align=center;fontSize=12;image=img/lib/azure2/networking/Firewalls.svg;" parent="1" vertex="1">
          <mxGeometry x="309" y="523" width="71" height="60" as="geometry" />
        </mxCell>
        <mxCell id="wLlMsNXpMdABEa9xwLQL-6" value="" style="image;aspect=fixed;html=1;points=[];align=center;fontSize=12;image=img/lib/azure2/containers/Container_Registries.svg;" parent="1" vertex="1">
          <mxGeometry x="505.5" y="83.5" width="68" height="61" as="geometry" />
        </mxCell>
        <mxCell id="wLlMsNXpMdABEa9xwLQL-12" style="edgeStyle=orthogonalEdgeStyle;rounded=0;orthogonalLoop=1;jettySize=auto;html=1;" parent="1" edge="1">
          <mxGeometry relative="1" as="geometry">
            <mxPoint x="563" y="346.57142857142867" as="sourcePoint" />
            <mxPoint x="1127" y="347" as="targetPoint" />
          </mxGeometry>
        </mxCell>
        <mxCell id="wLlMsNXpMdABEa9xwLQL-7" value="" style="image;aspect=fixed;html=1;points=[];align=center;fontSize=12;image=img/lib/azure2/integration/API_Management_Services.svg;" parent="1" vertex="1">
          <mxGeometry x="497" y="316.5" width="65" height="60" as="geometry" />
        </mxCell>
        <mxCell id="wLlMsNXpMdABEa9xwLQL-9" value="" style="image;aspect=fixed;html=1;points=[];align=center;fontSize=12;image=img/lib/azure2/networking/Virtual_Networks_Classic.svg;" parent="1" vertex="1">
          <mxGeometry x="1000" y="249" width="67" height="40" as="geometry" />
        </mxCell>
        <mxCell id="wLlMsNXpMdABEa9xwLQL-14" style="edgeStyle=orthogonalEdgeStyle;rounded=0;orthogonalLoop=1;jettySize=auto;html=1;" parent="1" source="wLlMsNXpMdABEa9xwLQL-11" target="wLlMsNXpMdABEa9xwLQL-13" edge="1">
          <mxGeometry relative="1" as="geometry" />
        </mxCell>
        <mxCell id="wLlMsNXpMdABEa9xwLQL-11" value="Internal Load Balancer" style="image;aspect=fixed;html=1;points=[];align=center;fontSize=12;image=img/lib/azure2/networking/Load_Balancers.svg;" parent="1" vertex="1">
          <mxGeometry x="1126" y="311" width="72" height="72" as="geometry" />
        </mxCell>
        <mxCell id="nnbe5SiCw00a81uTdJZI-10" style="edgeStyle=orthogonalEdgeStyle;rounded=0;orthogonalLoop=1;jettySize=auto;html=1;startArrow=classic;startFill=1;" parent="1" source="wLlMsNXpMdABEa9xwLQL-13" edge="1">
          <mxGeometry relative="1" as="geometry">
            <mxPoint x="1162" y="573" as="targetPoint" />
          </mxGeometry>
        </mxCell>
        <mxCell id="wLlMsNXpMdABEa9xwLQL-13" value="" style="image;aspect=fixed;html=1;points=[];align=center;fontSize=12;image=img/lib/azure2/containers/Kubernetes_Services.svg;" parent="1" vertex="1">
          <mxGeometry x="1128" y="430" width="68" height="60" as="geometry" />
        </mxCell>
        <mxCell id="wLlMsNXpMdABEa9xwLQL-18" value="" style="image;aspect=fixed;html=1;points=[];align=center;fontSize=12;image=img/lib/azure2/networking/Virtual_Networks_Classic.svg;" parent="1" vertex="1">
          <mxGeometry x="791.5" y="468" width="67" height="40" as="geometry" />
        </mxCell>
        <mxCell id="wLlMsNXpMdABEa9xwLQL-20" style="edgeStyle=orthogonalEdgeStyle;rounded=0;orthogonalLoop=1;jettySize=auto;html=1;startArrow=classic;startFill=1;entryX=-0.059;entryY=0.738;entryDx=0;entryDy=0;entryPerimeter=0;" parent="1" source="wLlMsNXpMdABEa9xwLQL-19" edge="1">
          <mxGeometry relative="1" as="geometry">
            <mxPoint x="1035.2948500000002" y="553.8409999999999" as="targetPoint" />
          </mxGeometry>
        </mxCell>
        <mxCell id="wLlMsNXpMdABEa9xwLQL-19" value="" style="image;aspect=fixed;html=1;points=[];align=center;fontSize=12;image=img/lib/azure2/iot/Event_Hubs.svg;" parent="1" vertex="1">
          <mxGeometry x="850.5" y="523.5" width="67" height="60" as="geometry" />
        </mxCell>
        <mxCell id="wLlMsNXpMdABEa9xwLQL-25" value="" style="image;aspect=fixed;html=1;points=[];align=center;fontSize=12;image=img/lib/azure2/networking/Virtual_Networks_Classic.svg;" parent="1" vertex="1">
          <mxGeometry x="998" y="652" width="67" height="40" as="geometry" />
        </mxCell>
        <mxCell id="wLlMsNXpMdABEa9xwLQL-42" value="" style="group" parent="1" vertex="1" connectable="0">
          <mxGeometry x="1175" y="486" width="117" height="47" as="geometry" />
        </mxCell>
        <mxCell id="wLlMsNXpMdABEa9xwLQL-31" value="" style="group" parent="wLlMsNXpMdABEa9xwLQL-42" vertex="1" connectable="0">
          <mxGeometry width="39.00000000000001" height="47" as="geometry" />
        </mxCell>
        <mxCell id="wLlMsNXpMdABEa9xwLQL-28" value="" style="group" parent="wLlMsNXpMdABEa9xwLQL-31" vertex="1" connectable="0">
          <mxGeometry width="39.00000000000001" height="29.606978879706155" as="geometry" />
        </mxCell>
        <mxCell id="wLlMsNXpMdABEa9xwLQL-26" value="" style="aspect=fixed;sketch=0;html=1;dashed=0;whitespace=wrap;verticalLabelPosition=bottom;verticalAlign=top;fillColor=#2875E2;strokeColor=#ffffff;points=[[0.005,0.63,0],[0.1,0.2,0],[0.9,0.2,0],[0.5,0,0],[0.995,0.63,0],[0.72,0.99,0],[0.5,1,0],[0.28,0.99,0]];shape=mxgraph.kubernetes.icon2;kubernetesLabel=1;prIcon=pod" parent="wLlMsNXpMdABEa9xwLQL-28" vertex="1">
          <mxGeometry x="6.500000000000003" width="25.91843762298308" height="24.88170011806376" as="geometry" />
        </mxCell>
        <mxCell id="wLlMsNXpMdABEa9xwLQL-27" value="" style="aspect=fixed;sketch=0;html=1;dashed=0;whitespace=wrap;verticalLabelPosition=bottom;verticalAlign=top;fillColor=#2875E2;strokeColor=#ffffff;points=[[0.005,0.63,0],[0.1,0.2,0],[0.9,0.2,0],[0.5,0,0],[0.995,0.63,0],[0.72,0.99,0],[0.5,1,0],[0.28,0.99,0]];shape=mxgraph.kubernetes.icon2;kubernetesLabel=1;prIcon=pod" parent="wLlMsNXpMdABEa9xwLQL-28" vertex="1">
          <mxGeometry y="4.229568411386594" width="25.91843762298308" height="24.88170011806376" as="geometry" />
        </mxCell>
        <mxCell id="wLlMsNXpMdABEa9xwLQL-29" value="&lt;font style=&quot;font-size: 9px;&quot;&gt;Back&amp;nbsp;&lt;/font&gt;&lt;div&gt;&lt;font style=&quot;font-size: 9px;&quot;&gt;Services&lt;/font&gt;&lt;/div&gt;" style="text;strokeColor=none;align=center;fillColor=none;html=1;verticalAlign=middle;whiteSpace=wrap;rounded=0;rotation=0;" parent="wLlMsNXpMdABEa9xwLQL-31" vertex="1">
          <mxGeometry x="-0.5131578947368423" y="32.85431675242996" width="39.00000000000001" height="16.806060606060605" as="geometry" />
        </mxCell>
        <mxCell id="wLlMsNXpMdABEa9xwLQL-32" value="" style="group" parent="wLlMsNXpMdABEa9xwLQL-42" vertex="1" connectable="0">
          <mxGeometry x="39.00000000000001" width="39.00000000000001" height="46.525252525252526" as="geometry" />
        </mxCell>
        <mxCell id="wLlMsNXpMdABEa9xwLQL-33" value="" style="group" parent="wLlMsNXpMdABEa9xwLQL-32" vertex="1" connectable="0">
          <mxGeometry width="39.00000000000001" height="29.606978879706155" as="geometry" />
        </mxCell>
        <mxCell id="wLlMsNXpMdABEa9xwLQL-34" value="" style="aspect=fixed;sketch=0;html=1;dashed=0;whitespace=wrap;verticalLabelPosition=bottom;verticalAlign=top;fillColor=#2875E2;strokeColor=#ffffff;points=[[0.005,0.63,0],[0.1,0.2,0],[0.9,0.2,0],[0.5,0,0],[0.995,0.63,0],[0.72,0.99,0],[0.5,1,0],[0.28,0.99,0]];shape=mxgraph.kubernetes.icon2;kubernetesLabel=1;prIcon=pod" parent="wLlMsNXpMdABEa9xwLQL-33" vertex="1">
          <mxGeometry x="6.500000000000003" width="25.91843762298308" height="24.88170011806376" as="geometry" />
        </mxCell>
        <mxCell id="wLlMsNXpMdABEa9xwLQL-35" value="" style="aspect=fixed;sketch=0;html=1;dashed=0;whitespace=wrap;verticalLabelPosition=bottom;verticalAlign=top;fillColor=#2875E2;strokeColor=#ffffff;points=[[0.005,0.63,0],[0.1,0.2,0],[0.9,0.2,0],[0.5,0,0],[0.995,0.63,0],[0.72,0.99,0],[0.5,1,0],[0.28,0.99,0]];shape=mxgraph.kubernetes.icon2;kubernetesLabel=1;prIcon=pod" parent="wLlMsNXpMdABEa9xwLQL-33" vertex="1">
          <mxGeometry y="4.229568411386594" width="25.91843762298308" height="24.88170011806376" as="geometry" />
        </mxCell>
        <mxCell id="wLlMsNXpMdABEa9xwLQL-36" value="&lt;font style=&quot;font-size: 9px;&quot;&gt;GraphQL&lt;/font&gt;&lt;div&gt;&lt;font style=&quot;font-size: 9px;&quot;&gt;Services&lt;/font&gt;&lt;/div&gt;" style="text;strokeColor=none;align=center;fillColor=none;html=1;verticalAlign=middle;whiteSpace=wrap;rounded=0;" parent="wLlMsNXpMdABEa9xwLQL-32" vertex="1">
          <mxGeometry y="33.32474834104337" width="39.00000000000001" height="15.860881542699724" as="geometry" />
        </mxCell>
        <mxCell id="wLlMsNXpMdABEa9xwLQL-37" value="" style="group" parent="wLlMsNXpMdABEa9xwLQL-42" vertex="1" connectable="0">
          <mxGeometry x="78.00000000000001" width="39.00000000000001" height="46.525252525252526" as="geometry" />
        </mxCell>
        <mxCell id="wLlMsNXpMdABEa9xwLQL-38" value="" style="group" parent="wLlMsNXpMdABEa9xwLQL-37" vertex="1" connectable="0">
          <mxGeometry width="39.00000000000001" height="29.606978879706155" as="geometry" />
        </mxCell>
        <mxCell id="wLlMsNXpMdABEa9xwLQL-39" value="" style="aspect=fixed;sketch=0;html=1;dashed=0;whitespace=wrap;verticalLabelPosition=bottom;verticalAlign=top;fillColor=#2875E2;strokeColor=#ffffff;points=[[0.005,0.63,0],[0.1,0.2,0],[0.9,0.2,0],[0.5,0,0],[0.995,0.63,0],[0.72,0.99,0],[0.5,1,0],[0.28,0.99,0]];shape=mxgraph.kubernetes.icon2;kubernetesLabel=1;prIcon=pod" parent="wLlMsNXpMdABEa9xwLQL-38" vertex="1">
          <mxGeometry x="6.500000000000003" width="25.91843762298308" height="24.88170011806376" as="geometry" />
        </mxCell>
        <mxCell id="wLlMsNXpMdABEa9xwLQL-40" value="" style="aspect=fixed;sketch=0;html=1;dashed=0;whitespace=wrap;verticalLabelPosition=bottom;verticalAlign=top;fillColor=#2875E2;strokeColor=#ffffff;points=[[0.005,0.63,0],[0.1,0.2,0],[0.9,0.2,0],[0.5,0,0],[0.995,0.63,0],[0.72,0.99,0],[0.5,1,0],[0.28,0.99,0]];shape=mxgraph.kubernetes.icon2;kubernetesLabel=1;prIcon=pod" parent="wLlMsNXpMdABEa9xwLQL-38" vertex="1">
          <mxGeometry y="5.286960514233242" width="24.840230617866986" height="23.844962613144435" as="geometry" />
        </mxCell>
        <mxCell id="wLlMsNXpMdABEa9xwLQL-41" value="&lt;font style=&quot;font-size: 9px;&quot;&gt;Rest&lt;br&gt;&lt;/font&gt;&lt;div&gt;&lt;font style=&quot;font-size: 9px;&quot;&gt;Services&lt;/font&gt;&lt;/div&gt;" style="text;strokeColor=none;align=center;fillColor=none;html=1;verticalAlign=middle;whiteSpace=wrap;rounded=0;" parent="wLlMsNXpMdABEa9xwLQL-37" vertex="1">
          <mxGeometry y="34.21154079387356" width="39.00000000000001" height="15.860881542699724" as="geometry" />
        </mxCell>
        <mxCell id="wLlMsNXpMdABEa9xwLQL-50" style="edgeStyle=orthogonalEdgeStyle;rounded=0;orthogonalLoop=1;jettySize=auto;html=1;" parent="1" source="wLlMsNXpMdABEa9xwLQL-49" target="4Z1zq4EiSo_AjnUcd4zq-8" edge="1">
          <mxGeometry relative="1" as="geometry">
            <mxPoint x="244" y="584" as="targetPoint" />
          </mxGeometry>
        </mxCell>
        <mxCell id="wLlMsNXpMdABEa9xwLQL-49" value="" style="image;sketch=0;aspect=fixed;html=1;points=[];align=center;fontSize=12;image=img/lib/mscae/App_Service_IPAddress.svg;" parent="1" vertex="1">
          <mxGeometry x="54" y="533" width="50" height="42" as="geometry" />
        </mxCell>
        <mxCell id="wLlMsNXpMdABEa9xwLQL-51" value="" style="image;aspect=fixed;html=1;points=[];align=center;fontSize=12;image=img/lib/azure2/networking/Virtual_Networks.svg;" parent="1" vertex="1">
          <mxGeometry x="766.56" y="223" width="67" height="40" as="geometry" />
        </mxCell>
        <mxCell id="q_ENeEPmGV3skopXBHg1-49" value="" style="image;aspect=fixed;html=1;points=[];align=center;fontSize=12;image=img/lib/azure2/networking/Virtual_Networks_Classic.svg;" parent="1" vertex="1">
          <mxGeometry x="438" y="39.5" width="67" height="40" as="geometry" />
        </mxCell>
        <mxCell id="q_ENeEPmGV3skopXBHg1-59" value="" style="image;aspect=fixed;html=1;points=[];align=center;fontSize=12;image=img/lib/azure2/general/Resource_Groups.svg;" parent="1" vertex="1">
          <mxGeometry x="713.4300000000001" y="183" width="53.13" height="50" as="geometry" />
        </mxCell>
        <mxCell id="q_ENeEPmGV3skopXBHg1-62" value="appgw-subnet" style="text;strokeColor=none;align=center;fillColor=none;html=1;verticalAlign=middle;whiteSpace=wrap;rounded=0;" parent="1" vertex="1">
          <mxGeometry x="458" y="211" width="159" height="30" as="geometry" />
        </mxCell>
        <mxCell id="q_ENeEPmGV3skopXBHg1-63" value="nrt-aks-subnet" style="text;strokeColor=none;align=center;fillColor=none;html=1;verticalAlign=middle;whiteSpace=wrap;rounded=0;" parent="1" vertex="1">
          <mxGeometry x="1031" y="252" width="159" height="30" as="geometry" />
        </mxCell>
        <mxCell id="q_ENeEPmGV3skopXBHg1-64" value="nrt-database-subnet" style="text;strokeColor=none;align=center;fillColor=none;html=1;verticalAlign=middle;whiteSpace=wrap;rounded=0;" parent="1" vertex="1">
          <mxGeometry x="1044" y="654" width="159" height="30" as="geometry" />
        </mxCell>
        <mxCell id="q_ENeEPmGV3skopXBHg1-65" value="nrt-streaming-subnet" style="text;strokeColor=none;align=center;fillColor=none;html=1;verticalAlign=middle;whiteSpace=wrap;rounded=0;" parent="1" vertex="1">
          <mxGeometry x="835.56" y="467" width="159" height="30" as="geometry" />
        </mxCell>
        <mxCell id="q_ENeEPmGV3skopXBHg1-66" value="nrt-vnet" style="text;strokeColor=none;align=center;fillColor=none;html=1;verticalAlign=middle;whiteSpace=wrap;rounded=0;" parent="1" vertex="1">
          <mxGeometry x="776.5600000000002" y="222" width="159" height="30" as="geometry" />
        </mxCell>
        <mxCell id="q_ENeEPmGV3skopXBHg1-68" value="nrt-rg" style="text;strokeColor=none;align=center;fillColor=none;html=1;verticalAlign=middle;whiteSpace=wrap;rounded=0;" parent="1" vertex="1">
          <mxGeometry x="705" y="189" width="159" height="30" as="geometry" />
        </mxCell>
        <mxCell id="q_ENeEPmGV3skopXBHg1-69" value="image-registry-subnet" style="text;strokeColor=none;align=center;fillColor=none;html=1;verticalAlign=middle;whiteSpace=wrap;rounded=0;" parent="1" vertex="1">
          <mxGeometry x="486" y="36" width="159" height="30" as="geometry" />
        </mxCell>
        <mxCell id="4Z1zq4EiSo_AjnUcd4zq-1" value="app clients" style="text;strokeColor=none;align=center;fillColor=none;html=1;verticalAlign=middle;whiteSpace=wrap;rounded=0;" parent="1" vertex="1">
          <mxGeometry x="56.25" y="580" width="45.5" height="30" as="geometry" />
        </mxCell>
        <mxCell id="4Z1zq4EiSo_AjnUcd4zq-3" value="unstructured data" style="text;strokeColor=none;align=center;fillColor=none;html=1;verticalAlign=middle;whiteSpace=wrap;rounded=0;" parent="1" vertex="1">
          <mxGeometry x="1139" y="754" width="60" height="30" as="geometry" />
        </mxCell>
        <mxCell id="4Z1zq4EiSo_AjnUcd4zq-7" value="VPN" style="text;strokeColor=none;align=center;fillColor=none;html=1;verticalAlign=middle;whiteSpace=wrap;rounded=0;" parent="1" vertex="1">
          <mxGeometry x="249" y="576.5" width="60" height="30" as="geometry" />
        </mxCell>
        <mxCell id="4Z1zq4EiSo_AjnUcd4zq-8" value="" style="image;aspect=fixed;html=1;points=[];align=center;fontSize=12;image=img/lib/azure2/networking/Local_Network_Gateways.svg;" parent="1" vertex="1">
          <mxGeometry x="220" y="520" width="68" height="68" as="geometry" />
        </mxCell>
        <mxCell id="nnbe5SiCw00a81uTdJZI-2" style="edgeStyle=orthogonalEdgeStyle;rounded=0;orthogonalLoop=1;jettySize=auto;html=1;entryX=0.007;entryY=0.434;entryDx=0;entryDy=0;entryPerimeter=0;" parent="1" edge="1">
          <mxGeometry relative="1" as="geometry">
            <mxPoint x="344.5000000000002" y="524" as="sourcePoint" />
            <mxPoint x="505.9760000000001" y="110.97400000000005" as="targetPoint" />
            <Array as="points">
              <mxPoint x="345" y="111" />
            </Array>
          </mxGeometry>
        </mxCell>
        <mxCell id="nnbe5SiCw00a81uTdJZI-5" style="edgeStyle=orthogonalEdgeStyle;rounded=0;orthogonalLoop=1;jettySize=auto;html=1;startArrow=classic;startFill=1;" parent="1" target="wLlMsNXpMdABEa9xwLQL-13" edge="1">
          <mxGeometry relative="1" as="geometry">
            <mxPoint x="1082.85" y="553.0588235294117" as="sourcePoint" />
            <Array as="points">
              <mxPoint x="1099" y="553" />
              <mxPoint x="1099" y="460" />
            </Array>
          </mxGeometry>
        </mxCell>
        <mxCell id="nnbe5SiCw00a81uTdJZI-8" style="edgeStyle=orthogonalEdgeStyle;rounded=0;orthogonalLoop=1;jettySize=auto;html=1;entryX=-0.05;entryY=0.236;entryDx=0;entryDy=0;entryPerimeter=0;startArrow=none;startFill=0;endArrow=classic;endFill=1;" parent="1" edge="1">
          <mxGeometry relative="1" as="geometry">
            <mxPoint x="1084.85" y="451.79999999999995" as="sourcePoint" />
            <mxPoint x="1126.6" y="452.1600000000001" as="targetPoint" />
          </mxGeometry>
        </mxCell>
        <mxCell id="nnbe5SiCw00a81uTdJZI-12" style="edgeStyle=orthogonalEdgeStyle;rounded=0;orthogonalLoop=1;jettySize=auto;html=1;endArrow=none;startFill=1;startArrow=classic;" parent="1" target="wLlMsNXpMdABEa9xwLQL-6" edge="1">
          <mxGeometry relative="1" as="geometry">
            <mxPoint x="1038" y="453" as="sourcePoint" />
            <mxPoint x="580.33" y="112.15" as="targetPoint" />
            <Array as="points">
              <mxPoint x="657" y="453" />
              <mxPoint x="657" y="116" />
            </Array>
          </mxGeometry>
        </mxCell>
        <mxCell id="nnbe5SiCw00a81uTdJZI-14" style="edgeStyle=orthogonalEdgeStyle;rounded=0;orthogonalLoop=1;jettySize=auto;html=1;entryX=0.047;entryY=0.388;entryDx=0;entryDy=0;entryPerimeter=0;exitX=0.563;exitY=0.016;exitDx=0;exitDy=0;exitPerimeter=0;" parent="1" source="wLlMsNXpMdABEa9xwLQL-4" edge="1">
          <mxGeometry relative="1" as="geometry">
            <mxPoint x="348.0588235294117" y="528" as="sourcePoint" />
            <mxPoint x="498.05499999999984" y="344.78" as="targetPoint" />
            <Array as="points">
              <mxPoint x="348" y="524" />
              <mxPoint x="348" y="345" />
            </Array>
          </mxGeometry>
        </mxCell>
        <mxCell id="nnbe5SiCw00a81uTdJZI-15" value="publish messages" style="text;strokeColor=none;align=center;fillColor=none;html=1;verticalAlign=middle;whiteSpace=wrap;rounded=0;" parent="1" vertex="1">
          <mxGeometry x="403" y="536" width="60" height="30" as="geometry" />
        </mxCell>
        <mxCell id="nnbe5SiCw00a81uTdJZI-17" value="send&lt;div&gt;requests&lt;/div&gt;" style="text;strokeColor=none;align=center;fillColor=none;html=1;verticalAlign=middle;whiteSpace=wrap;rounded=0;" parent="1" vertex="1">
          <mxGeometry x="354" y="329" width="60" height="30" as="geometry" />
        </mxCell>
        <mxCell id="nnbe5SiCw00a81uTdJZI-18" value="send&lt;div&gt;requests&lt;/div&gt;" style="text;strokeColor=none;align=center;fillColor=none;html=1;verticalAlign=middle;whiteSpace=wrap;rounded=0;" parent="1" vertex="1">
          <mxGeometry x="151" y="537" width="60" height="30" as="geometry" />
        </mxCell>
        <mxCell id="nnbe5SiCw00a81uTdJZI-19" value="push&lt;div&gt;images&lt;/div&gt;" style="text;strokeColor=none;align=center;fillColor=none;html=1;verticalAlign=middle;whiteSpace=wrap;rounded=0;" parent="1" vertex="1">
          <mxGeometry x="354" y="94.5" width="60" height="30" as="geometry" />
        </mxCell>
        <mxCell id="nnbe5SiCw00a81uTdJZI-21" value="&lt;span style=&quot;background-color: transparent; color: light-dark(rgb(0, 0, 0), rgb(255, 255, 255));&quot;&gt;pull&lt;/span&gt;&lt;div&gt;&lt;span style=&quot;background-color: transparent; color: light-dark(rgb(0, 0, 0), rgb(255, 255, 255));&quot;&gt;images&lt;/span&gt;&lt;/div&gt;" style="text;strokeColor=none;align=center;fillColor=none;html=1;verticalAlign=middle;whiteSpace=wrap;rounded=0;" parent="1" vertex="1">
          <mxGeometry x="887" y="436" width="60" height="30" as="geometry" />
        </mxCell>
        <mxCell id="nnbe5SiCw00a81uTdJZI-23" style="edgeStyle=orthogonalEdgeStyle;rounded=0;orthogonalLoop=1;jettySize=auto;html=1;" parent="1" source="nnbe5SiCw00a81uTdJZI-22" target="4Z1zq4EiSo_AjnUcd4zq-8" edge="1">
          <mxGeometry relative="1" as="geometry" />
        </mxCell>
        <mxCell id="nnbe5SiCw00a81uTdJZI-22" value="" style="sketch=0;outlineConnect=0;fontColor=#232F3E;gradientColor=none;fillColor=#7AA116;strokeColor=none;dashed=0;verticalLabelPosition=bottom;verticalAlign=top;align=center;html=1;fontSize=12;fontStyle=0;aspect=fixed;pointerEvents=1;shape=mxgraph.aws4.iot_analytics_pipeline;" parent="1" vertex="1">
          <mxGeometry x="40" y="413.5" width="78" height="42" as="geometry" />
        </mxCell>
        <mxCell id="nnbe5SiCw00a81uTdJZI-24" value="push&lt;div&gt;images&lt;/div&gt;" style="text;strokeColor=none;align=center;fillColor=none;html=1;verticalAlign=middle;whiteSpace=wrap;rounded=0;" parent="1" vertex="1">
          <mxGeometry x="167" y="420" width="60" height="30" as="geometry" />
        </mxCell>
        <mxCell id="nnbe5SiCw00a81uTdJZI-27" value="hub-vnet" style="text;strokeColor=none;align=center;fillColor=none;html=1;verticalAlign=middle;whiteSpace=wrap;rounded=0;" parent="1" vertex="1">
          <mxGeometry x="140" y="10" width="159" height="30" as="geometry" />
        </mxCell>
        <mxCell id="nnbe5SiCw00a81uTdJZI-28" value="" style="image;aspect=fixed;html=1;points=[];align=center;fontSize=12;image=img/lib/azure2/networking/Virtual_Networks.svg;" parent="1" vertex="1">
          <mxGeometry x="127" y="11" width="67" height="40" as="geometry" />
        </mxCell>
        <mxCell id="nnbe5SiCw00a81uTdJZI-29" value="" style="image;aspect=fixed;html=1;points=[];align=center;fontSize=12;image=img/lib/azure2/networking/Private_Link.svg;" parent="1" vertex="1">
          <mxGeometry x="1037" y="525" width="43.64" height="40" as="geometry" />
        </mxCell>
        <mxCell id="nnbe5SiCw00a81uTdJZI-30" value="" style="image;aspect=fixed;html=1;points=[];align=center;fontSize=12;image=img/lib/azure2/networking/Private_Link.svg;" parent="1" vertex="1">
          <mxGeometry x="1039" y="424" width="43.64" height="40" as="geometry" />
        </mxCell>
        <mxCell id="nnbe5SiCw00a81uTdJZI-31" value="" style="image;aspect=fixed;html=1;points=[];align=center;fontSize=12;image=img/lib/azure2/networking/Private_Link.svg;" parent="1" vertex="1">
          <mxGeometry x="1141.18" y="575" width="43.64" height="40" as="geometry" />
        </mxCell>
        <mxCell id="nnbe5SiCw00a81uTdJZI-34" value="" style="image;aspect=fixed;html=1;points=[];align=center;fontSize=12;image=img/lib/azure2/networking/Network_Security_Groups.svg;" parent="1" vertex="1">
          <mxGeometry x="973.4699999999999" y="434.5" width="32.53" height="39.5" as="geometry" />
        </mxCell>
        <mxCell id="nnbe5SiCw00a81uTdJZI-38" value="" style="image;aspect=fixed;html=1;points=[];align=center;fontSize=12;image=img/lib/azure2/networking/Network_Security_Groups.svg;" parent="1" vertex="1">
          <mxGeometry x="792.73" y="536" width="32.53" height="39.5" as="geometry" />
        </mxCell>
        <mxCell id="nnbe5SiCw00a81uTdJZI-42" style="edgeStyle=orthogonalEdgeStyle;rounded=0;orthogonalLoop=1;jettySize=auto;html=1;" parent="1" source="nnbe5SiCw00a81uTdJZI-40" target="4Z1zq4EiSo_AjnUcd4zq-8" edge="1">
          <mxGeometry relative="1" as="geometry" />
        </mxCell>
        <mxCell id="nnbe5SiCw00a81uTdJZI-40" value="" style="image;aspect=fixed;html=1;points=[];align=center;fontSize=12;image=img/lib/azure2/web/App_Space.svg;" parent="1" vertex="1">
          <mxGeometry x="45" y="652" width="68" height="68" as="geometry" />
        </mxCell>
        <mxCell id="nnbe5SiCw00a81uTdJZI-41" value="change&lt;div&gt;data&lt;/div&gt;&lt;div&gt;capture&lt;/div&gt;&lt;div&gt;tool&lt;/div&gt;" style="text;strokeColor=none;align=center;fillColor=none;html=1;verticalAlign=middle;whiteSpace=wrap;rounded=0;" parent="1" vertex="1">
          <mxGeometry x="55" y="730" width="45.5" height="30" as="geometry" />
        </mxCell>
        <mxCell id="nnbe5SiCw00a81uTdJZI-43" value="publish messages" style="text;strokeColor=none;align=center;fillColor=none;html=1;verticalAlign=middle;whiteSpace=wrap;rounded=0;" parent="1" vertex="1">
          <mxGeometry x="157" y="670" width="60" height="30" as="geometry" />
        </mxCell>
        <mxCell id="nnbe5SiCw00a81uTdJZI-44" value="&lt;span style=&quot;background-color: transparent; color: light-dark(rgb(0, 0, 0), rgb(255, 255, 255));&quot;&gt;pub/sub&lt;/span&gt;&lt;div&gt;&lt;span style=&quot;background-color: transparent; color: light-dark(rgb(0, 0, 0), rgb(255, 255, 255));&quot;&gt;messages&lt;/span&gt;&lt;/div&gt;" style="text;strokeColor=none;align=center;fillColor=none;html=1;verticalAlign=middle;whiteSpace=wrap;rounded=0;" parent="1" vertex="1">
          <mxGeometry x="960" y="538" width="60" height="30" as="geometry" />
        </mxCell>
        <mxCell id="nnbe5SiCw00a81uTdJZI-45" value="&lt;font style=&quot;color: rgb(128, 128, 128);&quot;&gt;Private&amp;nbsp;&lt;/font&gt;&lt;div&gt;&lt;font style=&quot;color: rgb(128, 128, 128);&quot;&gt;Network&lt;/font&gt;&lt;/div&gt;" style="text;strokeColor=none;align=center;fillColor=none;html=1;verticalAlign=middle;whiteSpace=wrap;rounded=0;" parent="1" vertex="1">
          <mxGeometry x="80" y="787" width="60" height="30" as="geometry" />
        </mxCell>
        <mxCell id="nnbe5SiCw00a81uTdJZI-47" style="edgeStyle=orthogonalEdgeStyle;rounded=0;orthogonalLoop=1;jettySize=auto;html=1;startArrow=classic;startFill=1;" parent="1" target="nnbe5SiCw00a81uTdJZI-31" edge="1">
          <mxGeometry relative="1" as="geometry">
            <mxPoint x="1162.8000000000002" y="693" as="sourcePoint" />
          </mxGeometry>
        </mxCell>
        <mxCell id="nnbe5SiCw00a81uTdJZI-48" value="continuous integration pipeline" style="text;strokeColor=none;align=center;fillColor=none;html=1;verticalAlign=middle;whiteSpace=wrap;rounded=0;" parent="1" vertex="1">
          <mxGeometry x="49" y="461.5" width="60" height="30" as="geometry" />
        </mxCell>
        <mxCell id="nnbe5SiCw00a81uTdJZI-49" value="" style="image;aspect=fixed;html=1;points=[];align=center;fontSize=12;image=img/lib/azure2/networking/Network_Security_Groups.svg;" parent="1" vertex="1">
          <mxGeometry x="976.47" y="328" width="32.53" height="39.5" as="geometry" />
        </mxCell>
        <mxCell id="nnbe5SiCw00a81uTdJZI-53" value="send&lt;div&gt;requests&lt;/div&gt;" style="text;strokeColor=none;align=center;fillColor=none;html=1;verticalAlign=middle;whiteSpace=wrap;rounded=0;" parent="1" vertex="1">
          <mxGeometry x="803" y="332" width="60" height="30" as="geometry" />
        </mxCell>
        <mxCell id="Jrq4ZXqkoHlFZNsFY3xv-1" value="" style="image;aspect=fixed;html=1;points=[];align=center;fontSize=12;image=img/lib/azure2/databases/Azure_Cosmos_DB.svg;" vertex="1" parent="1">
          <mxGeometry x="1134" y="689" width="64" height="64" as="geometry" />
        </mxCell>
      </root>
    </mxGraphModel>
  </diagram>
</mxfile>
